<svg xmlns="http://www.w3.org/2000/svg" width="172" viewBox="0 0 172 172" xml:space="preserve" height="172"><path fill="#fefefe" d="M172.168 66.012v106.156h-172v-172h172zm-16.857-23.948a2.5 2.5 0 0 1-.594-.22c-.015-.312-.119-.652-.03-.931.8-2.496 1.653-5.057.614-7.605-.64-1.571-.64-3.001-.506-4.62.512-6.181-4.589-10.656-10.386-9.242-2.602.635-4.643 2.871-4.917 5.43-.185 1.729.449 3.144 1.838 4.164 1.193.876 2.523 1.016 3.887.394 1.049-.478 1.667-1.3 1.747-2.464.063-.927-.202-1.713-1.151-2.216a7 7 0 0 1-.488-.133l-.482.034a4 4 0 0 0 .181.447c.127.193.253.387.358.726.027.243.054.486.015.836-.142.205-.285.41-.561.635-.358.082-.717.164-1.177.181a4.7 4.7 0 0 1-.85-.576c-.108-.148-.216-.296-.322-.496 0 0-.035-.039-.028-.132-.018-.025-.036-.05-.05-.22a5 5 0 0 1 .046-.94.9.9 0 0 1 .082-.379l.089-.347s.018.004.108-.036c.053-.115.107-.23.241-.421.21-.205.419-.411.747-.629.352-.165.704-.331 1.192-.502.632 0 1.265 0 1.992.07.19.046.38.092.61.178 0 0 .056.006.108.092.125.038.249.076.46.194 1.983 1.375 2.792 3.21 2.213 5.158-.08.268-.428.638-.667.649-3.698.174-6.457 2.035-8.634 4.848-2.284 2.952-2.983 6.381-2.758 10.049.023.366.027.865-.186 1.09-.917.972-1.909 1.874-2.892 2.782-.267.247-.596.428-1.039.739 0-.478-.003-.724.001-.97.03-1.98-.235-3.913-1.028-5.738-.221-.509-.205-.825.18-1.248 1.928-2.116 3.219-4.587 3.698-7.41.789-4.65-.414-8.696-4.134-11.728-2.968-2.419-6.573-1.925-8.791 1.194-.853 1.199-1.344 2.675-1.885 4.069-.295.76-.351 1.613-.522 2.457-.353-.05-.626-.085-.897-.127-1.956-.301-3.902-.344-5.818.254-3.139.98-4.713 3.744-3.957 6.958.817 3.473 3.121 5.693 6.237 7.108 3.888 1.766 7.881 1.601 11.881.334.278-.088.558-.17.896-.272.39 2.996.051 5.751-1.186 8.39-.231.493-.467.538-.969.431-1.638-.35-3.281-.718-4.942-.907-5.606-.637-11.185-.117-16.735.656-7.632 1.062-15.12 2.819-22.504 5.015-10.053 2.99-19.743 6.822-28.757 12.262-8.276 4.995-15.706 10.99-22.094 18.268-10.048 11.448-15.978 24.754-18.145 39.797-.612 4.245-.613 8.613-2.488 12.703-.414.976-.879 1.933-1.232 2.93-.992 2.806.065 5.521 2.684 6.921 2.023 1.081 4.185.952 6.391.78 2.304-.18 4.638-.308 6.937-.146 5.105.36 10.187 1.069 15.294 1.356 7.388.415 14.763.07 22.102-.973 7.922-1.126 15.546-3.245 22.7-6.856 12.973-6.549 23.798-15.716 32.682-27.188 1.346-1.739 2.52-3.612 3.871-5.471a283 283 0 0 1 2.794-4.714s.015-.077.101-.145c1.239-2.596 2.565-5.155 3.689-7.799.914-2.152 1.587-4.406 2.436-6.713 2.814-9.186 4.031-18.562 3.292-28.16-.183-2.379-.577-4.735-1.721-6.87-.347-.647-.212-1.01.277-1.41 2.147-1.756 4.604-2.731 7.372-2.839.481-.019 1.004.222 1.455.448 1.467.734 2.917 1.503 4.357 2.289.342.187.788.439.89.756.216.667.408 1.428.289 2.092-.133.738-.595 1.427-.964 2.11-1.18 2.185-.483 4.681 1.659 5.745 1.792.89 3.894.42 4.836-1.707.015-.144.03-.289.087-.57.004-.674-.108-1.298-.765-1.79a.8.8 0 0 0-.452.239 6 6 0 0 1-.113 1.122c-.601.771-1.332.93-2.093.455-.642-.401-.862-1.208-.48-1.982.218-.442.53-.837.902-1.3 1.247-1.251 1.679-2.781 1.446-4.375 1.38-.374 2.667-.642 3.897-1.075 1.648-.58 2.977-1.63 3.969-3.092 2.038-3.002 1.069-6.564-2.392-8.65a88 88 0 0 1-3.049-1.5"/><path fill="#723f24" d="M146.813 22.802c-.633 0-1.265 0-2.005-.036-.473.16-.838.355-1.203.55-.209.205-.419.41-.722.663-.142.169-.189.291-.237.413l-.08-.018a2.7 2.7 0 0 1-.643-.454c.456-.515.902-.975 1.403-1.431.183-.107.311-.217.478-.345.088-.046.124-.087.213-.147.888-.081 1.709-.22 2.53-.214 1.411.01 2.527.773 3.631 1.638 1.13 1.383 1.666 2.887 1.337 4.636a45 45 0 0 0-1.657 2.364c-.053.081-.021.219-.098.341-.292.027-.517.029-.736.063-5.148.808-9.543 6.042-9.214 12.212.015.754.055 1.435.102 2.245 3.197-1.265 6.341-2.015 9.631-1.91l.064.219c-1.045.477-2.09.953-3.196 1.432a316 316 0 0 0-5.305 3.12c-.436.262-.434.566-.073.945 1.667 1.751 3.47 3.29 5.705 4.313 3.166 1.449 6.344 1.662 9.552.277 1.477-.638 2.769-1.565 3.445-3.198.715-1.249.587-2.811-.421-3.91-.631-.688-1.395-1.255-2.074-1.929.408-.361.792-.67 1.177-.978 3.406 1.986 4.375 5.548 2.337 8.55-.993 1.462-2.321 2.512-3.969 3.092-1.23.433-2.518.701-3.897 1.075.233 1.595-.199 3.124-1.557 4.397a1.76 1.76 0 0 1-.665-.539c.631-.949 1.154-1.858 1.203-3.002.036-.815-.244-1.122-1.079-1.043-.282-.038-.514-.038-.618-.038 0 .997 0 1.9-.029 2.855-.455.857-.881 1.663-1.357 2.508-.57 1.517-.206 2.889.946 3.572.275.163.72.663.991-.078.057.035.085.06.1.165.101.208.204.447.325.458.702.059 1.407.059 1.87-.63.003-.002.008-.009.031-.024.023-.014.041-.081.041-.081s-.061-.047-.068-.107c.049-.25.053-.56.169-.609.601-.257.304-.463.003-.692.011-.343.022-.687.107-1.102.188-.075.301-.079.414-.084.619.408.732 1.032.653 1.818-.078.246-.081.38-.085.514-.87 2.071-2.971 2.541-4.764 1.651-2.142-1.064-2.839-3.56-1.659-5.745.369-.683.831-1.372.964-2.11.119-.664-.073-1.425-.289-2.092-.103-.317-.548-.569-.89-.756-1.44-.786-2.89-1.556-4.357-2.289-.451-.226-.975-.466-1.455-.448-2.768.108-5.225 1.083-7.372 2.839-.49.401-.624.764-.277 1.41 1.144 2.134 1.538 4.49 1.721 6.87.739 9.599-.478 18.974-3.336 28.201-.043.04-.061.024-.061-.037-.115-.576-.289-1.008-.956-.965-.117.008-.248-.195-.365-.366.741-3.516 1.588-6.947 2.179-10.422.742-4.36 1.141-8.768.843-13.199a86 86 0 0 0-.707-6.625c-.188-1.287-.653-2.521-1.618-3.548a27 27 0 0 0-1.562-1.607.3.3 0 0 0-.143.022c.001.005.011.001.001-.057-.886-.471-1.726-1.001-2.643-1.274-3.606-1.075-7.314-1.181-11.05-1.086-5.356.136-10.643.827-15.892 1.835-7.174 1.377-14.22 3.242-21.169 5.505C68.481 63.91 58.203 68.78 48.85 75.547c-6.174 4.467-11.78 9.534-16.512 15.516-1.779 2.25-3.343 4.67-5.05 7.043-3.276 4.994-5.739 10.322-7.631 15.926-2.247 6.658-3.309 13.544-4.041 20.5-.261 2.48-.915 4.853-2.222 6.986-.236-.325-.419-.617-.629-.889-.15-.196-.335-.365-.504-.546 1.78-4.027 1.781-8.395 2.393-12.64 2.167-15.043 8.097-28.349 18.145-39.797 6.388-7.278 13.818-13.274 22.094-18.268 9.014-5.44 18.704-9.272 28.757-12.262 7.384-2.196 14.871-3.952 22.504-5.015 5.55-.773 11.128-1.293 16.735-.656 1.661.189 3.304.556 4.942.907.502.107.738.062.969-.431 1.237-2.64 1.576-5.394 1.186-8.39-.337.102-.617.184-.896.272-4 1.267-7.993 1.433-11.881-.334-3.116-1.415-5.42-3.635-6.237-7.108-.756-3.214.818-5.979 3.957-6.958 1.916-.598 3.862-.555 5.818-.254.272.042.544.077.897.127.17-.844.227-1.697.522-2.457.542-1.394 1.033-2.87 1.886-4.069 2.218-3.119 5.824-3.614 8.791-1.194 3.72 3.033 4.923 7.078 4.134 11.728-.479 2.823-1.771 5.294-3.699 7.41-.386.423-.401.739-.18 1.248.792 1.824 1.058 3.758 1.028 5.738-.004.246-.001.492-.001.97.443-.311.772-.491 1.039-.739.983-.908 1.975-1.81 2.892-2.782.212-.225.208-.724.186-1.09-.225-3.668.474-7.097 2.758-10.049 2.177-2.813 4.936-4.674 8.634-4.848.239-.011.588-.381.667-.649.579-1.948-.23-3.783-2.275-5.248a1.3 1.3 0 0 0-.449-.19s-.056-.006-.101-.071c-.25-.104-.455-.143-.66-.182m-19.465 12.355.032-.009c-.018-.01-.035-.02-.066-.129l-.202-.16c-.014.044-.048.122-.04.127.083.049.173.085.276.17m1.24 1.279-.129-.266-.781-.754-.193.169c.281.346.561.692.886 1.081 0 0 .055.028.079.122.064.112.129.224.197.453.128.171.256.342.424.62.162.258.324.516.49.85.02.051.057.084.117.178 0 0 .031.074.023.18.089.104.177.209.264.402.017.056.034.112.053.295.383 1.192.767 2.384 1.149 3.686.016.071.032.143.028.334.049.187.099.375.145.672.015.071.031.143.024.363.268 2.576-.105 5.065-1.136 7.432-.333.765-.157 1.088.67 1.304l2.067 1.601c.196-.244.346-.438.503-.627 1.146-1.367 2.25-2.772 3.455-4.085.824-.899 1.789-1.668 2.801-2.531.228-.139.456-.278.795-.44.317-.252.634-.503 1.07-.772l5.095-2.514c-.385.018-.557-.003-.714.037-3.547.911-6.873 2.32-9.762 4.599-1.416 1.117-2.702 2.398-4.028 3.465.088-.582.176-1.164.249-1.86.006-.115.012-.229.085-.463.021-.415.043-.83.135-1.338.016-.197.031-.393.129-.67-.004-.148-.008-.296.019-.567a14 14 0 0 1-.078-1.02 80 80 0 0 1-.187-1.988 2 2 0 0 1-.048-.461 1.5 1.5 0 0 1-.131-.376c-.066-.236-.132-.472-.186-.808-.051-.081-.102-.161-.16-.35-.06-.13-.121-.261-.173-.49-.05-.081-.1-.162-.161-.365-.311-.726-.622-1.453-.824-2.232a6 6 0 0 0-.431-.395 197 197 0 0 0-1.275-1.669l-.028-.116c-.171-.199-.343-.398-.527-.686m3.371-13.514c-2.551-1.982-5.229-1.557-6.878 1.219-.646 1.086-1.077 2.326-1.442 3.544-.332 1.108-.441 2.282-.664 3.514-.38-.063-.755-.145-1.134-.183-1.469-.148-2.942-.422-4.408-.393-4.157.082-6.144 3.167-4.357 6.768.907 1.672 2.009 3.154 3.883 4.04.162.106.316.228.488.315 3.866 1.974 7.815 1.556 11.792.414.438-.126.489-.376.332-.762-.567-1.39-1.077-2.804-1.701-4.167-.28-.612-.778-1.123-1.194-1.797-.411-.65-.821-1.3-1.202-2.101.01-.05.019-.101.101-.134 0 0 .063.039.109.126.058.028.116.055.289.094 1.064.844 2.129 1.687 3.238 2.633l2.908 3.784c1.527-1.782 2.519-3.817 3.099-6.212.056-.346.113-.692.255-1.113a9 9 0 0 1 .046-.599c.009-.531.043-1.062.025-1.592-.102-2.949-1.321-5.365-3.585-7.399m5.631 29.39 3.275-.847c-.465-1.287-1.422-1.845-2.278-1.187-.83.638-1.475 1.518-2.201 2.291l.136.195c.317-.132.633-.264 1.068-.452"/><path fill="#743f25" d="M12.209 140.116c.217.15.401.319.552.515.209.272.393.564.614.95-.163.474-.428.826-.524 1.22-.142.586-.164 1.201-.248 1.871.039.65.088 1.232.149 1.872.788 2.167 3.288 2.74 5.367 2.539 1.495-.145 2.994-.435 4.485-.4 2.895.068 5.789.272 8.677.504 4.214.339 8.416.912 12.636 1.09 3.903.164 7.822-.042 11.733-.126.936-.02 1.869-.208 2.879-.317 1.541-.164 3.019-.255 4.468-.511 3.425-.604 6.873-1.136 10.244-1.969 6.773-1.672 13.087-4.492 19.029-8.14a96 96 0 0 0 16.688-12.971c2.321-2.254 4.499-4.665 6.615-7.115 1.655-1.916 3.132-3.987 4.655-6.014.884-1.177 1.704-2.403 2.561-3.541.236.703-.059 1.531.702 1.975-1.253 1.811-2.426 3.684-3.773 5.423-8.884 11.472-19.708 20.639-32.682 27.188-7.153 3.611-14.778 5.73-22.7 6.856-7.339 1.043-14.714 1.388-22.102.973-5.107-.287-10.189-.996-15.294-1.356-2.299-.162-4.633-.034-6.937.146-2.206.172-4.368.301-6.391-.78-2.619-1.4-3.675-4.115-2.684-6.921.352-.997.818-1.955 1.28-2.962"/><path fill="#714126" d="M149.828 30.752c.007-.111-.025-.249.029-.33.523-.792 1.06-1.574 1.666-2.318.09.165.107.29.066.438-.239.376-.525.747.162.964.12.019.189.024.294.076.424.235.813.422 1.251.633.328-1.251.608-2.44.218-3.741-.384-1.036-.77-2.007-1.181-3.027-1.585-2.167-3.694-3.214-6.308-3.081-2.295.117-4.83 1.614-5.31 3.871-.435 2.516.358 3.949 2.428 4.51.127.042.224.043.383.062.466-.064.871-.147 1.337-.233.652-.156.978-.517 1.029-1.141-.091-.007-.13-.023-.145-.01-.321.263-.639.529-1.024.803-1.175.276-1.975-.025-2.678-.976-.777-1.049-.822-2.165-.131-3.274a7 7 0 0 0 .654.389c.033.127.002.249-.102.437-.072.172-.071.278-.071.383.005.29.011.579-.013.961.005.135.038.178.071.221 0 0 .035.039.02.127.111.231.237.373.363.514.275.156.549.312.907.543.464-.042.846-.159 1.228-.275.142-.205.285-.41.501-.699.027-.355-.02-.626-.067-.897a7 7 0 0 1-.411-.689c-.04-.187-.049-.266-.059-.345.13-.009.26-.018.487.043.204.094.311.117.419.141.923.424 1.188 1.211 1.124 2.138-.079 1.164-.698 1.986-1.747 2.464-1.364.622-2.695.482-3.887-.394-1.389-1.02-2.023-2.434-1.838-4.164.274-2.559 2.315-4.795 4.917-5.43 5.796-1.414 10.898 3.062 10.386 9.242-.134 1.619-.134 3.049.506 4.62 1.039 2.548.186 5.11-.614 7.605-.089.278.015.619.014.988-.161-.067-.437-.198-.431-.314.046-.877-.432-.632-.895-.455-.174.066-.35.125-.524.121.186-.707.396-1.341.551-1.989.394-1.641.876-3.278.47-5.063-.198-1.521-1.002-2.514-2.356-3.031-.538-.206-1.124-.283-1.689-.419"/><path fill="#723f24" d="M123.541 111.524c-.81-.42-.515-1.248-.743-2.01 1.021-1.931 2.126-3.695 3.045-5.553a131 131 0 0 0 3.431-7.563c.682-1.632 1.167-3.346 1.799-5.017.517.275.974.544 1.432.813l.027.025c-.771 2.217-1.444 4.472-2.358 6.623-1.124 2.645-2.45 5.203-3.785 7.8a1.6 1.6 0 0 1-.399-.426l-.19.221.519.392a331 331 0 0 1-2.777 4.696"/><path fill="#78482a" d="M150.649 60.296a6 6 0 0 0 .628.506c-.209.418-.521.813-.739 1.255-.382.774-.162 1.582.48 1.982.761.475 1.492.316 2.133-.5.341.183.638.389.038.646-.116.05-.12.359-.169.645.007.096.004.167.004.167s-.005.007-.077.011c-.754.035-1.435.065-2.117.095-.025-.03-.053-.055-.17-.095-1.025-.729-1.458-1.661-1.303-2.902.44-.642.867-1.226 1.293-1.81"/><path fill="#723f24" d="M152.851 41.32c.175-.062.352-.121.526-.187.463-.176.941-.422.895.455-.006.117.27.248.48.361.23.031.395.073.589.224a5.7 5.7 0 0 1-.398 1.4c-.912-.312-1.76-.606-2.591-.961.177-.47.338-.881.499-1.291"/><path fill="#714126" d="M155.007 43.589c.121-.436.243-.872.367-1.376a38 38 0 0 1 3.014 1.401c-.357.359-.741.667-1.209 1.018-.78-.319-1.476-.681-2.172-1.043"/><path fill="#93624d" d="M143.664 23.31a6.7 6.7 0 0 1 1.076-.541 6.7 6.7 0 0 1-1.076.541m1.24 3.978a8 8 0 0 1-1.11.298c.326-.124.685-.206 1.11-.298m.491-1.534c.058.198.104.469.111.771-.068-.212-.094-.455-.111-.771"/><path fill="#743f25" d="M126.351 106.807a4 4 0 0 1-.552-.371l.19-.221c.101.142.202.285.356.46.054.033.038.11.005.131"/><path fill="#93624d" d="M146.86 22.837c.158.005.362.044.593.128-.165-.001-.355-.047-.592-.128m-4.037 4.119a1.4 1.4 0 0 1-.351-.435c.122.085.23.233.351.435"/><path fill="#78482a" d="M153.694 62.266c-.094.046-.207.05-.376.054a.9.9 0 0 1 .376-.054"/><path fill="#93624d" d="M142.426 25.151c-.032-.07-.033-.176.002-.297.033.077.031.169-.002.297m5.174-2.053q.155-.015.38.107-.156.016-.38-.107m-4.91 1.275q.002-.155.152-.355c0 .105-.054.22-.152.355m3.138.419c-.094.016-.202-.008-.341-.078.088-.018.208.01.341.078m-.937-.141c.055.075.064.154.074.293a.5.5 0 0 1-.074-.293"/><path fill="#78482a" d="M154.316 64.612c-.033-.106-.029-.24.028-.417.039.1.024.245-.028.417"/><path fill="#93624d" d="M142.457 26.322c-.037.004-.071-.039-.078-.102.045.005.063.03.078.102"/><path fill="#d07243" d="M12.74 146.487c-.049-.582-.098-1.164-.094-1.845.183-.299.314-.499.506-.702 2.259-.833 3.637-2.514 4.646-4.528 1.838-3.67 3.703-7.33 6.427-10.437 1.692-1.93 3.434-3.845 5.353-5.542 2.822-2.496 6.038-4.441 9.373-6.217 3.433-1.828 7.013-3.284 10.654-4.596 3.096-1.116 6.235-2.114 9.369-3.122 3.207-1.032 6.438-1.989 9.645-3.024 2.252-.727 4.523-1.427 6.71-2.322 3.143-1.286 6.261-2.651 9.31-4.145 2.675-1.311 5.324-2.716 7.834-4.315a176 176 0 0 0 10.524-7.232c2.518-1.875 4.856-4.003 7.195-6.105a56 56 0 0 0 4.491-4.495c1.844-2.081 3.638-4.219 5.298-6.449 1.863-2.504 3.452-5.195 4.655-8.093 1.142-2.753 2.185-5.532 2.086-8.591 1.203.235 2.334.468 3.465.7 0 0-.01.004.006.028.069.002.122-.019.175-.04.503.512 1.005 1.025 1.503 1.671.048.546.128.957.148 1.37a33.2 33.2 0 0 1-.929 9.514c-.825 3.388-1.854 6.727-2.842 10.073-.197.669-.61 1.273-.95 1.858-1.161-1.541-2.472-2.822-4.41-3.726.12.421.133.671.252.849 1.104 1.655 2.227 3.299 3.341 5.009-1.284 2.808-2.446 5.616-3.877 8.281a96 96 0 0 1-7.466 11.775c-.538.726-1.174 1.379-1.806 2.062-.04-.003-.122-.003-.127-.062-2.497-3.836-5.6-6.919-9.82-8.754 2.494 3.836 5.416 7.321 8.314 10.884-.096.255-.155.48-.292.636-.627.71-1.239 1.439-1.923 2.091-2.966 2.828-5.845 5.762-8.965 8.411a86.4 86.4 0 0 1-13.604 9.454c-2.471 1.389-4.992 2.693-7.525 3.967-1.111.559-2.308.947-3.473 1.354-.453-.693-.867-1.351-1.349-1.957-1.547-1.946-3.236-3.751-5.362-5.086-.262-.165-.602-.205-1.082-.36.151.511.178.804.314 1.03 1.162 1.924 2.342 3.836 3.521 5.75.418.679.845 1.352 1.2 2.027-2.875.898-5.683 1.796-8.545 2.697-.186.056-.318.11-.507.163-.187.055-.317.111-.514.167-.64.222-1.213.442-1.853.664-.413.058-.758.116-1.169.174-.414.112-.763.223-1.167.334l-.336.004c-.187.056-.317.112-.489.167h-.195c-3.465.667-6.852 1.385-10.26 1.981-2.479.433-4.986.705-7.521 1.045-.04-.003-.12-.007-.127-.065a8.5 8.5 0 0 0-3.011-3.278l-.281.144c.428 1.121.856 2.241 1.238 3.41-1.661.295-3.272.568-4.891.784-4.192.558-8.199 1.705-11.998 3.59-1.94.962-4.014 1.519-6.196 1.435-.871-.033-1.732-.302-2.598-.464m65.448-20.81c.64.357 1.277.333 1.905-.026.788-.451 1.088-1.151 1.04-2.037-.038-.697-.413-1.152-1.021-1.407-.9-.377-2.105.088-2.607.97-.472.83-.262 1.739.684 2.499m35.34-26.256c.124-.8-.087-1.521-.858-1.805-.426-.157-1.053-.086-1.471.121-.678.336-.88 1.107-.622 1.741.188.463.725.95 1.205 1.09.792.232 1.369-.281 1.746-1.147"/><path fill="#c05735" d="M75.924 132.188c1.158-.465 2.355-.853 3.466-1.412 2.533-1.274 5.054-2.578 7.525-3.967a86.3 86.3 0 0 0 13.604-9.454c3.12-2.649 5.999-5.583 8.966-8.411.684-.652 1.296-1.381 1.923-2.091.138-.156.196-.381.334-.636.043-.061.126-.061.132-.003 1.471 1.667 2.937 3.277 4.402 4.887l.293-.184c-.056-.276-.056-.58-.177-.823-.993-1.987-2.009-3.962-3.017-5.941.591-.686 1.227-1.339 1.765-2.065a96 96 0 0 0 7.466-11.775c1.431-2.664 2.592-5.473 3.918-8.28.043-.063.125-.062.15-.012.928.837 1.831 1.623 2.75 2.424.157-.233.223-.288.213-.322-.432-1.503-1.132-2.859-2.232-3.989-.015-.015-.054-.008-.082-.054l.002-.13c.314-.634.727-1.239.924-1.907.988-3.346 2.017-6.685 2.842-10.073a33.2 33.2 0 0 0 .929-9.514c-.02-.413-.1-.824-.142-1.312.969.892 1.435 2.126 1.623 3.413a86 86 0 0 1 .707 6.625c.298 4.431-.101 8.84-.843 13.199-.592 3.475-1.438 6.907-2.222 10.459a4 4 0 0 0-.128.536c-.573 1.677-1.058 3.391-1.74 5.023a131 131 0 0 1-3.431 7.563c-.918 1.857-2.024 3.622-3.053 5.487-.856 1.263-1.676 2.489-2.56 3.666-1.523 2.027-3 4.099-4.655 6.014-2.116 2.449-4.294 4.861-6.615 7.115a96 96 0 0 1-16.688 12.971c-5.942 3.648-12.256 6.467-19.029 8.14-3.372.833-6.82 1.365-10.244 1.969-1.449.255-2.927.347-4.482.445-1.089-.497-2.096-.451-3.132-.191-.398.1-.944.189-1.238-.002-.57-.369-1.068-.482-1.723-.307-.38.102-.823-.008-1.235-.049-.549-.054-1.099-.205-1.643-.182-.545.024-1.083.21-1.76.354-.075.477-.44.555-1.016.245-.171-.092-.456.057-.679.028-.283-.037-.62-.069-.817-.239-.208-.18-.277-.519-.407-.789l.654-.303c0-.702-.01-1.282.003-1.862.012-.567.113-1.093-.263-1.655-.365-.545.999-2.512 1.669-2.542.083-.004.167.02.25.015.264-.017.537-.004.788-.071.682-.182 1.353-.4 1.852-.55.46.438.793.765 1.153 1.06.014.012.281-.284.441-.448l-1.03-.606c1.011-.361 1.868-.593 2.251-1.487.033-.078.414-.114.533-.029.646.461 1.073.142 1.46-.44.297.213.588.346.771.568.512.621.94.634 1.514.078.228-.221.592-.303.888-.445l.32.664.218.018c.061-.249.159-.496.174-.748.035-.572.205-.832.875-.744.774.101 1.572.024 2.36.024l.095-.393c-.238-.111-.477-.318-.712-.314-.664.011-1.351.017-1.983.194-.812.227-.896-.058-.693-.717.028 0 .056 0 .16.043.221-.041.367-.125.512-.21.075-.001.149-.002.291.057.704.545 1.023.228 1.221-.396a7 7 0 0 1 1.13-.12c1.04.946 1.564.817 1.865-.386.027-.106.02-.221.028-.332.13-.055.26-.111.447-.098.016.38-.026.693-.074 1.059.583.073.863-.08.769-.653-.035-.215-.089-.426-.134-.639 2.808-.898 5.616-1.796 8.536-2.693.141.001.17.001.25.028 3.264 4.493 4.914 6.35 5.766 6.42-.302-2.711-1.707-4.97-2.923-7.302-.071-.136-.247-.217-.375-.366l.001-.126m-20.167 15.734c-.093-.397-.285-.535-.626-.224-.359.327-.58.671.014 1.182.219-.299.416-.567.612-.957m-3.26.37.115-.413-.446.037c.071.121.141.243.331.376"/><path fill="#efb485" d="M130.176 55.367a56 56 0 0 1-3.508-.684c-1.291-.116-2.459-.267-3.624-.241-2.059.046-4.121.132-6.171.326-2.378.225-4.765.465-7.107.914a172 172 0 0 0-10.175 2.288c-2.876.735-5.703 1.664-8.611 2.497-.586-.306-1.113-.603-1.809-.994.152.667.246 1.081.273 1.492-1.277.395-2.497.763-3.694 1.195-2.558.924-5.104 1.883-7.719 2.831a397 397 0 0 0-4.565 1.809c-4.558 1.832-8.963 3.984-13.24 6.397-1.232.695-2.418 1.471-3.694 2.213-.605-.105-1.141-.213-1.718-.329.184.405.321.707.404 1.028-1.298.861-2.589 1.641-3.776 2.556-3.237 2.494-6.505 4.956-9.614 7.603-2.202 1.875-4.221 3.976-6.217 6.077-1.337 1.408-2.489 2.991-3.725 4.495-.716.872-1.433 1.743-2.184 2.567-.24-.247-.437-.456-.652-.645-.194-.171-.385-.383-.617-.465-.35-.124-.734-.152-1.104-.22 1.662-2.343 3.225-4.763 5.004-7.013 4.732-5.982 10.338-11.049 16.512-15.516 9.352-6.766 19.63-11.637 30.576-15.202 6.949-2.263 13.995-4.128 21.169-5.505 5.25-1.008 10.536-1.699 15.892-1.835 3.736-.095 7.444.011 11.05 1.086.917.273 1.758.804 2.643 1.274"/><path fill="#a2b848" d="M125.444 33.485c.411.65.821 1.3 1.231 2.075.182.649.371 1.17.548 1.695.621 1.844.181 3.031-1.592 3.801-2.605 1.131-5.294 1.009-7.991.3-.232-.061-.491-.02-.738-.027-1.819-.785-2.921-2.267-3.791-4.044-.036-2.11.896-3.432 2.766-4.113 2.526-.92 5.14-.872 7.758-.652.589.05 1.003.088 1.012-.665.003-.245.096-.49.154-.733.419-1.756.706-3.553 1.749-5.102 1.299-1.93 2.742-3.557 5.414-2.95.015.003.039-.036.059-.056 2.199 1.941 3.418 4.358 3.52 7.307.018.53-.015 1.062-.085 1.684a2.3 2.3 0 0 0-.071.582 7.6 7.6 0 0 1-.241 1.105c-.414.343-.815.571-1.088.903-.854 1.038-1.692 2.038-3.265 1.649-.534-.132-1.085-.197-1.627-.293a338 338 0 0 0-3.278-2.576l-.251-.135s-.063-.039-.121-.095a2.3 2.3 0 0 0-.463-.156z"/><path fill="#a4b94a" d="M152.852 41.253c-.162.477-.323.887-.56 1.358-.375.252-.673.443-1.031.674 1.271.669 2.425 1.177 3.473 1.852 1.61 1.037 3.235 2.093 4.152 3.923-.555.584-1.029 1.198-1.633 1.63-3.13 2.24-8.588 2.012-11.513-.46-1.176-.994-1.702-2.738-.422-3.848.444-.385.772-.903 1.153-1.36l3.135-1.43-.064-.219c-3.29-.105-6.434.645-9.631 1.91-.048-.81-.088-1.491-.048-2.261.146-.49.197-.895.281-1.293.944-4.462 3.63-7.441 7.845-9.042 1.65-.627 3.339-.715 4.836.48.392.312.698.732 1.044 1.102.409 1.718-.074 3.354-.467 4.996-.155.647-.365 1.282-.551 1.989"/><path fill="#efb487" d="M27.284 98.108c.416.038.8.066 1.15.19.232.082.423.294.617.465.215.189.413.398.645.703-.418.839-.87 1.569-1.308 2.307-1.422 2.393-2.949 4.731-4.232 7.196-1.88 3.613-3.401 7.402-4.352 11.366-1.005 4.187-1.859 8.415-2.649 12.649-.555 2.977-1.228 5.88-2.807 8.51-.471.785-.841 1.631-1.258 2.449-.13.201-.261.401-.434.632.031-.572.053-1.187.195-1.773.096-.394.361-.746.565-1.178 1.282-2.236 1.935-4.61 2.196-7.089.732-6.956 1.794-13.843 4.041-20.5 1.891-5.604 4.355-10.932 7.631-15.926"/><path fill="#8e9d3c" d="M146.41 45.024c-.32.456-.649.974-1.092 1.359-1.28 1.11-.754 2.854.422 3.848 2.925 2.471 8.383 2.7 11.513.46.604-.432 1.077-1.046 1.69-1.61.313.465.547.964.781 1.463-.664 1.57-1.957 2.498-3.434 3.136-3.209 1.386-6.386 1.172-9.552-.277-2.236-1.023-4.038-2.563-5.705-4.314-.361-.379-.363-.683.073-.945a316 316 0 0 1 5.305-3.12"/><path fill="#c8d278" d="M131.991 22.969c.013.066-.012.106-.026.102-2.673-.606-4.116 1.02-5.414 2.95-1.042 1.549-1.329 3.346-1.749 5.102-.058.243-.151.488-.154.733-.009.753-.423.715-1.012.665-2.618-.22-5.232-.268-7.758.652-1.869.681-2.802 2.002-2.776 4.055-1.815-3.438.173-6.523 4.33-6.605 1.466-.029 2.939.245 4.408.393.379.038.754.12 1.134.183.223-1.232.333-2.406.664-3.513.365-1.219.797-2.458 1.442-3.544 1.649-2.776 4.327-3.201 6.911-1.172"/><path fill="#c8d17b" d="M153.873 34.202c-.348-.303-.655-.722-1.046-1.035-1.498-1.195-3.187-1.107-4.836-.48-4.215 1.601-6.901 4.58-7.845 9.042-.084.398-.135.803-.256 1.219-.41-6.081 3.986-11.315 9.134-12.123.219-.034.444-.036.736-.063.634.125 1.221.203 1.758.408 1.354.517 2.158 1.51 2.356 3.031"/><path fill="#8e9b3b" d="M116.93 41.38c.219-.044.478-.085.71-.024 2.696.709 5.385.831 7.991-.3 1.773-.77 2.213-1.958 1.592-3.801-.177-.525-.366-1.047-.54-1.637.409.49.907 1.001 1.187 1.613.624 1.363 1.134 2.778 1.701 4.167.157.386.106.636-.332.762-3.977 1.142-7.926 1.56-11.792-.414a3 3 0 0 1-.516-.366"/><path fill="#c8d17b" d="M159.734 50.482c-.244-.437-.478-.936-.769-1.456-.997-1.796-2.622-2.852-4.232-3.889-1.047-.674-2.202-1.183-3.473-1.852.358-.23.656-.422 1.015-.614.908.295 1.756.589 2.668.901.76.378 1.456.74 2.212 1.112.764.632 1.527 1.199 2.158 1.887 1.008 1.099 1.136 2.661.421 3.91"/><path fill="#a7b64d" d="M132.16 52.432c1.345-1.207 2.631-2.488 4.046-3.605 2.889-2.279 6.215-3.688 9.762-4.599.157-.04.329-.019.714-.037-1.826.901-3.46 1.708-5.219 2.518-.435.266-.746.529-1.057.791-.228.139-.456.278-.768.379-.615.242-1.22.437-1.664.819-1.144.984-2.545 1.628-3.48 2.916-.443.609-1.357.884-2.078 1.272-.109.059-.33-.091-.5-.145z"/><path fill="#8e9b3b" d="M129.188 36.001c.52.045 1.07.11 1.605.242 1.574.389 2.411-.61 3.265-1.649.273-.332.674-.56 1.079-.837a13.76 13.76 0 0 1-3.018 6.079c-1.02-1.328-1.964-2.556-2.931-3.835"/><path fill="#919d3b" d="M132.169 52.362a2.2 2.2 0 0 1-.253.378c.169.054.391.204.5.145.721-.388 1.636-.663 2.079-1.272.936-1.287 2.336-1.932 3.48-2.916.444-.382 1.049-.576 1.609-.801-.874.882-1.839 1.652-2.663 2.551-1.205 1.313-2.309 2.718-3.455 4.085-.158.188-.308.383-.503.627-.714-.553-1.39-1.077-2.075-1.708.261-.922.531-1.738.843-2.521.095.187.148.34.275.71.091-.454.138-.685.186-.955.002-.04.004-.12.066-.125l.184-.013z"/><path fill="#a4b94a" d="m151.647 28.518-.06-.42c.256-1.789-.28-3.293-1.399-4.738.16-.252.338-.393.574-.531.407.265.765.516 1.102.792.244.2.429.31.496-.126.386.97.772 1.941 1.093 2.985-.168.159-.323.222-.367.331-.37.903-.719 1.814-1.075 2.722a.45.45 0 0 1-.267-.094 6 6 0 0 1-.097-.921"/><path fill="#b0ba51" d="M131.688 50.897c-.269.816-.539 1.631-.832 2.509-.786-.064-.963-.387-.63-1.152 1.031-2.367 1.403-4.856 1.203-7.491.168.183.269.425.382.696l.614-.036.1-.913c.064.621.127 1.242.124 1.939-.243-.023-.418-.122-.626-.239 0 .661-.041 1.326.025 1.98.02.193.343.356.526.533-.021.415-.043.83-.16 1.294-.89-.118-.6.54-.728.88"/><path fill="#b5bb56" d="M144.802 28.579a8.5 8.5 0 0 1-1.291.192c-.184-.059-.291-.063-.398-.067-2.04-.519-2.833-1.952-2.336-4.468.321-.277.554-.487.744-.73.938-1.197 1.91-2.332 3.606-2.253-.404.289-.79.521-1.177.752-.022.053-.058.095-.203.142-.222.125-.348.232-.475.339-.447.46-.893.919-1.349 1.435-.699 1.165-.655 2.28.122 3.33.703.95 1.504 1.252 2.679 1.036a.6.6 0 0 1 .079.292"/><path fill="#b0ba51" d="M150.663 60.239c-.44.641-.867 1.225-1.353 1.836-.199-.181-.337-.389-.476-.596.426-.806.852-1.611 1.369-2.476.271-.36.561-.645.607-.965.084-.591.026-1.202.026-1.805.786-.118 1.066.189 1.03 1.004-.05 1.144-.573 2.053-1.203 3.002"/><path fill="#899236" d="M137.53 52.34c-.376.16-.693.292-1.009.424l-.136-.195c.726-.773 1.371-1.653 2.201-2.291.857-.658 1.813-.1 2.278 1.187-1.093.283-2.184.565-3.334.875"/><path fill="#bfcb65" d="M132.529 44.447c-.033.342-.064.622-.102.975l-.614.036c-.113-.271-.213-.513-.37-.77-.072-.086-.087-.158-.055-.32-.026-.294-.099-.498-.172-.702-.016-.071-.032-.142.004-.312-.081-.871-.142-1.666-.373-2.409-.148-.476-.545-.874-.83-1.307a.9.9 0 0 1-.04-.271 1.2 1.2 0 0 0-.266-.405s-.031-.074-.043-.149c-.032-.121-.065-.156-.11-.178a7 7 0 0 1-.486-.878c.026-.244.051-.385.077-.526.424.559.847 1.117 1.323 1.755.124.176.197.273.269.37.311.726.622 1.453.902 2.268.04.185.112.28.183.376.06.13.121.261.149.473a.84.84 0 0 0 .181.368c.066.236.132.472.165.795a.9.9 0 0 0 .138.385c.025.122.049.244.072.428"/><path fill="#9fa242" d="M144.016 21.998c.32-.224.707-.456 1.184-.751a7.2 7.2 0 0 1 1.603.004c.349.114.681.173 1.082.235 1.148.116 2.137.411 2.819 1.34-.178.141-.356.282-.545.485-1.086-.755-2.201-1.517-3.613-1.527-.821-.006-1.642.133-2.53.214m4.768 39.521c.189.168.328.376.513.615-.095 1.214.338 2.145 1.338 2.861-.186.76-.63.26-.905.097-1.152-.683-1.515-2.056-.946-3.572m2.004-5.326c.048.641.107 1.253.023 1.844-.046.32-.336.605-.578.914-.063-.895-.063-1.799-.063-2.796.104 0 .337 0 .618.038"/><path fill="#a4b94a" d="M132.612 48.677c-.22-.13-.542-.293-.562-.486-.066-.654-.025-1.319-.025-1.98.207.117.382.216.619.315.091.29.122.579.094.949-.053.243-.048.404-.043.566-.016.197-.031.393-.083.636"/><path fill="#b0ba51" d="M130.016 39.702c.284.37.682.768.829 1.243.231.742.292 1.538.374 2.354-.435-1.149-.818-2.341-1.203-3.597"/><path fill="#743f25" d="M131.073 91.381c-.033-.151-.007-.296.061-.477.167.069.298.272.415.264.667-.043.841.389.956.965-.457-.208-.915-.477-1.432-.752"/><path fill="#899236" d="M150.82 65.179c.691-.105 1.372-.136 2.123-.168-.39.685-1.095.685-1.797.626-.122-.01-.224-.249-.326-.458"/><path fill="#a4b94a" d="M131.731 50.93c.086-.373-.204-1.031.653-.853.056.126.05.241.052.413-.034.06-.075.063-.199.043-.116-.003-.148.017-.181.036l.135.156-.184.915c-.127-.37-.18-.523-.275-.71"/><path fill="#a7b64d" d="m128.326 36.623-.842-1.038.193-.169c.26.251.521.503.762.835-.05.178-.082.275-.113.372"/><path fill="#919d3b" d="M140.462 47.488a7 7 0 0 1 .942-.771 7 7 0 0 1-.942.771"/><path fill="#bfcb65" d="M128.643 37.124a1.1 1.1 0 0 1-.161-.426c.061-.118.09-.145.119-.174.171.199.343.398.462.662-.175.022-.297-.02-.42-.062"/><path fill="#78482a" d="M125.458 33.409c-.145-.09-.275-.256-.405-.422.135.033.27.067.427.147a.7.7 0 0 1-.022.274"/><path fill="#a7b64d" d="M128.644 37.182c.121-.016.244.026.433.062.066-.006.066-.006.068-.01a7 7 0 0 1-.095.469c-.148-.121-.276-.292-.406-.521"/><path fill="#b0ba51" d="M131.204 43.726c.083.144.156.348.183.587-.095-.152-.144-.339-.183-.587"/><path fill="#8e9b3b" d="M135.43 32.55a.83.83 0 0 1 .016-.468c.041.134.034.282-.016.468"/><path fill="#919d3b" d="M132.735 48a.86.86 0 0 1-.014-.464.86.86 0 0 1 .014.464"/><path fill="#78482a" d="M130.794 39.329c-.127-.07-.199-.167-.276-.312a.7.7 0 0 1 .276.312"/><path fill="#9fa242" d="M143.325 22.491q.108-.165.383-.326-.108.165-.383.326"/><path fill="#b0ba51" d="M132.16 42.79a.45.45 0 0 1-.184-.264c.087.053.138.134.184.264m.31 1.182a.43.43 0 0 1-.148-.275c.078.059.12.143.148.275m-.641-2.023a.45.45 0 0 1-.182-.265c.087.053.137.134.182.265m-2.125-2.934c.096.048.188.148.271.308q-.146-.07-.271-.308"/><path fill="#78482a" d="M127.333 35.112c-.088-.04-.178-.077-.261-.125-.009-.005.025-.083.04-.127a1 1 0 0 1 .206.203c.004.043.016.05.016.05"/><path fill="#bfcb65" d="M128.348 36.644a.73.73 0 0 1 .115-.342c.07.025.097.08.131.178-.023.072-.052.1-.125.171-.044.042-.099.015-.121-.007"/><path fill="#a7b64d" d="M127.324 35.111q.03.023.056.037c-.011.003-.021.006-.039-.014-.007-.023-.019-.029-.016-.023"/><path fill="#efb485" d="M130.319 55.402c-.004.032-.057.054-.127.046.015-.038.047-.047.127-.046"/><path fill="#78482a" d="M125.66 33.282q.047-.02.17.086-.047.02-.17-.086"/><path fill="#899236" d="M153.047 64.982c-.023.015-.02-.057-.02-.092s.061.011.061.011-.018.067-.041.081"/><path fill="#b0ba51" d="M129.558 38.672q.063-.022.103.101-.069.031-.103-.101"/><path fill="#c05936" d="M58.385 137.904c-.135.657-.051.942.761.715.631-.176 1.319-.183 1.983-.194.236-.004.475.203.712.314l-.095.393c-.788 0-1.585.078-2.36-.024-.671-.088-.841.173-.875.744-.015.252-.114.499-.174.748l-.218-.018-.32-.664c-.295.142-.659.224-.888.445-.574.555-1.002.543-1.514-.078-.183-.222-.475-.355-.772-.568-.386.582-.813.901-1.459.44-.119-.085-.5-.049-.533.029-.383.894-1.24 1.125-2.251 1.487l1.03.606c-.16.164-.427.46-.441.448-.36-.295-.693-.622-1.153-1.06-.498.15-1.17.368-1.852.55-.251.067-.524.054-.788.071-.083.005-.167-.018-.25-.015-.67.03-2.034 1.997-1.669 2.542.376.562.275 1.088.263 1.655-.013.58-.003 1.16-.003 1.862l-.654.303c.13.27.2.609.407.789.197.17.534.202.817.239.224.029.509-.12.679-.028.576.31.941.232 1.016-.245.676-.144 1.214-.331 1.76-.354.544-.024 1.094.128 1.643.182.412.04.854.15 1.235.049.655-.176 1.153-.062 1.723.307.294.19.84.101 1.238.002 1.036-.26 2.043-.306 3.056.189-.92.176-1.853.363-2.789.384-3.911.085-7.83.291-11.733.126-4.22-.178-8.421-.75-12.636-1.09-2.888-.232-5.782-.436-8.677-.504-1.491-.035-2.99.255-4.485.4-2.079.201-4.579-.372-5.367-2.539.853.104 1.714.373 2.585.406 2.182.083 4.256-.473 6.196-1.435 3.799-1.885 7.806-3.032 11.998-3.59 1.619-.216 3.231-.489 4.927-.765.127.005.158.049.198.156 1.008 2.058 1.958 4.085 3.708 5.629.067-.751.087-1.481-.137-2.126-.459-1.32-1.049-2.593-1.585-3.886 2.495-.343 5.002-.615 7.481-1.048 3.409-.596 6.796-1.314 10.26-1.981"/><path fill="#c8cd7f" d="M146.786 21.196c-.498-.005-.997-.009-1.568-.008-1.787-.015-2.759 1.12-3.696 2.317-.19.243-.423.453-.698.678.373-2.205 2.908-3.702 5.203-3.819 2.613-.133 4.722.914 6.308 3.081-.041.485-.227.375-.47.175a12 12 0 0 0-1.102-.793c-.739-.932-1.729-1.227-2.914-1.389-.425-.114-.743-.179-1.061-.244"/><path fill="#8e9b3b" d="M152.045 29.582c.32-.956.67-1.867 1.04-2.77.045-.109.199-.172.365-.265.455 1.227.175 2.417-.153 3.667a23 23 0 0 1-1.251-.633"/><path fill="#9fa242" d="M144.863 28.575c-.065-.076-.069-.156-.074-.296.318-.326.637-.592.957-.855.015-.013.054.003.145.01-.051.624-.377.985-1.029 1.141"/><path fill="#8e9b3b" d="M151.589 28.542c.071.256.083.536.104.883-.629-.136-.343-.507-.104-.883"/><path fill="#9fa242" d="M143.143 28.746c.077-.038.184-.034.306.007-.082.036-.179.036-.306-.007"/><path fill="#dd8650" d="M13.152 143.939c.355-.815.725-1.661 1.196-2.446 1.579-2.63 2.252-5.533 2.807-8.51.79-4.234 1.644-8.461 2.649-12.649.952-3.964 2.473-7.753 4.352-11.366 1.283-2.465 2.81-4.804 4.232-7.196.438-.738.89-1.468 1.343-2.26.724-.929 1.441-1.8 2.156-2.672 1.235-1.504 2.388-3.087 3.725-4.495 1.995-2.101 4.014-4.203 6.217-6.077 3.109-2.647 6.378-5.109 9.615-7.603 1.187-.915 2.478-1.695 3.825-2.531 1.052 1.168 1.932 2.395 2.962 3.481 2.531 2.668 5.117 5.286 7.715 7.889.602.603 1.339 1.071 2.014 1.601l.259-.231c-.539-1.013-1.052-2.041-1.624-3.035-.496-.862-1.059-1.686-1.529-2.534.35-.113.63-.246.925-.319.592-.147 1.094-.904.779-1.417-.459-.748-.169-.977.412-1.028.106-.404.096-.849.299-.995.197-.142.671-.073.924.075.507.296.946.71 1.559 1.189.245-.495.582-.847.534-1.137-.153-.926.465-1.447.949-2.048.594.885 1.408 1.423 2.383 1.441 1.211.022 2.477.004 3.627-.321 2.138-.604 3.975-1.837 5.608-3.343 1.179-1.087 2.17-2.305 2.639-3.887.646-2.177-.642-3.971-2.9-3.997-.782-.009-1.563.006-2.346-.053-.225-.358-.417-.686-.679-.943-.541-.532-1.119-1.026-1.681-1.536 2.551-.944 5.097-1.903 7.654-2.827 1.197-.433 2.418-.8 3.749-1.17.269.259.431.484.563.726 1.264 2.314 2.738 4.473 4.711 6.247.486.437 1.064.772 1.743 1.256.036-.483.066-.675.06-.865a2 2 0 0 0-.081-.491c-.686-2.401-2.097-4.326-3.927-5.976-.515-.464-1.019-.94-1.527-1.411 2.849-.843 5.675-1.772 8.551-2.506 3.367-.86 6.762-1.634 10.175-2.288 2.342-.449 4.73-.689 7.107-.914 2.049-.194 4.112-.28 6.171-.326 1.164-.026 2.333.125 3.551.239.225 3.104-.819 5.883-1.961 8.636-1.202 2.897-2.792 5.589-4.655 8.093-1.659 2.23-3.453 4.368-5.298 6.449a56 56 0 0 1-4.49 4.495c-2.34 2.102-4.677 4.23-7.195 6.105a176 176 0 0 1-10.524 7.232c-2.51 1.6-5.159 3.004-7.834 4.315-3.049 1.494-6.167 2.86-9.31 4.145-2.187.895-4.458 1.595-6.71 2.322-3.206 1.035-6.437 1.992-9.645 3.024-3.134 1.008-6.273 2.006-9.369 3.122-3.642 1.312-7.221 2.768-10.654 4.596-3.334 1.776-6.551 3.721-9.373 6.217-1.919 1.697-3.661 3.612-5.353 5.542-2.725 3.107-4.59 6.767-6.427 10.437-1.009 2.015-2.386 3.696-4.646 4.528m18.341-34.734c-.478-.232-.937-.601-1.439-.673-1.903-.275-3.166 1.778-2.77 3.458.126.533.768 1.157 1.307 1.336 1.166.386 2.138-.214 2.772-1.195.56-.866.841-1.828.13-2.926m3.026-4.396c.281.228.578.439.841.686 1.481 1.389 3.107 2.542 5.069 3.15.187.058.402.024.604.032-.055-.195-.066-.417-.171-.579-1.796-2.779-4.339-4.579-7.442-5.632-.235-.08-.495-.086-.992-.166.779.94 1.394 1.682 2.091 2.51M58.7 83.811c-.758-.755-1.593-.478-2.399-.139-1.072.451-1.785 1.897-1.52 2.981.204.832.96 1.198 2.269 1.016 1.001-.139 1.625-.785 1.998-1.696.303-.738.416-1.454-.349-2.161m50.243-21.669c1.443.096 2.621-1.785 2.09-2.713-.462-.808-1.323-1.303-2.278-1.125-.723.135-1.702 1.216-1.751 1.934-.063.913.384 1.46 1.482 1.815.105.034.214.057.457.089"/><path fill="#b35633" d="m111.867 106.156-.124-.001c-2.941-3.502-5.863-6.986-8.357-10.823 4.219 1.835 7.323 4.918 9.82 8.818-.442.75-.89 1.378-1.339 2.006"/><path fill="#b45533" d="m73.404 133.534-.133-.001a46 46 0 0 1-1.312-2.028c-1.178-1.914-2.359-3.826-3.521-5.75-.137-.226-.163-.519-.314-1.03.48.155.82.196 1.082.36 2.125 1.335 3.814 3.141 5.362 5.086.481.606.896 1.264 1.349 1.957.007.086.007.114-.055.192-.707.304-1.359.546-1.995.823-.177.077-.31.257-.463.39"/><path fill="#dd8b59" d="M78.129 125.65c-.887-.733-1.098-1.642-.625-2.472.502-.882 1.707-1.347 2.607-.97.608.255.984.71 1.022 1.407.048.886-.252 1.586-1.04 2.037-.628.359-1.265.383-1.963-.002"/><path fill="#a64629" d="M111.873 106.214c.443-.686.891-1.313 1.338-2.005-.001-.063.08-.063.121-.06a284 284 0 0 1 3.058 5.944c.122.243.121.548.177.823l-.293.184c-1.465-1.61-2.931-3.219-4.402-4.887"/><path fill="#ac4a2b" d="M40.604 140.93c.576 1.296 1.166 2.57 1.625 3.889.224.645.204 1.375.137 2.126-1.75-1.543-2.7-3.571-3.647-5.656.614-.176 1.189-.271 1.765-.366 0 0 .08.003.12.007"/><path fill="#b35633" d="m126.647 81.97-.123-.001a243 243 0 0 1-3.385-4.946c-.119-.179-.132-.429-.252-.849 1.938.904 3.249 2.185 4.41 3.726.025.079.025.107.017.242-.227.68-.447 1.254-.668 1.829"/><path fill="#dd8b59" d="M113.507 99.485c-.355.802-.933 1.315-1.725 1.083-.48-.141-1.017-.628-1.205-1.09-.258-.634-.056-1.405.622-1.741.418-.207 1.044-.278 1.471-.121.772.284.982 1.005.837 1.869"/><path fill="#b45533" d="M40.477 140.865c-.569.154-1.144.248-1.781.371-.079-.026-.11-.07-.191-.123-.464-1.139-.892-2.26-1.321-3.381l.281-.144a8.5 8.5 0 0 1 3.011 3.278"/><path fill="#c05936" d="M63.593 136.56a.46.46 0 0 1 .039.331c-.301 1.203-.825 1.332-1.797.385a14 14 0 0 1 1.759-.717m1.021-.329c.099.21.153.422.188.636.094.574-.186.727-.769.654.048-.366.089-.679.13-1.059.133-.121.265-.174.451-.23m-4.044 1.167c-.133.624-.452.94-1.1.395.337-.172.686-.283 1.1-.395m-1.503.338a.9.9 0 0 1-.413.211c.096-.099.226-.155.413-.211"/><path fill="#a64629" d="M73.454 133.561c.103-.16.235-.34.413-.417a38 38 0 0 1 1.996-.781c.188.099.364.18.435.316 1.216 2.332 2.621 4.591 2.923 7.302-.852-.071-2.502-1.927-5.766-6.42m53.217-51.541c.195-.625.415-1.199.642-1.836.035-.059.074-.067.089-.051 1.1 1.13 1.8 2.485 2.232 3.989.01.034-.056.089-.213.322-.919-.801-1.822-1.587-2.75-2.424"/><path fill="#c05936" d="M55.757 147.982c-.196.329-.393.597-.612.896-.594-.511-.373-.855-.014-1.182.341-.311.533-.173.626.286m-3.319.304a1.6 1.6 0 0 1-.271-.37l.446-.037a1.2 1.2 0 0 1-.175.407"/><path fill="#dd844e" d="M71.397 77.599c-.435.629-1.053 1.149-.899 2.076.048.289-.289.642-.534 1.137-.614-.48-1.052-.893-1.559-1.189-.252-.148-.727-.217-.924-.075-.203.146-.192.591-.299.995-.581.051-.871.28-.412 1.028.314.512-.188 1.269-.779 1.416-.295.073-.575.206-.975.293-2.301-2.892-4.851-5.38-7.887-7.357-.202-.131-.352-.341-.526-.514 1.207-.739 2.394-1.515 3.626-2.21 4.276-2.413 8.682-4.565 13.24-6.397 1.5-.603 3.001-1.203 4.565-1.809.627.506 1.205 1 1.746 1.532.262.257.454.585.621.969-3.392.982-6.177 2.671-8.124 5.604-.923 1.389-1.382 2.846-.878 4.502"/><path fill="#c5683d" d="M56.532 75.411c.243.171.393.381.595.512 3.036 1.976 5.586 4.465 7.823 7.364.583.867 1.146 1.691 1.642 2.553.572.994 1.085 2.022 1.624 3.035l-.259.231c-.675-.53-1.412-.998-2.014-1.601-2.598-2.604-5.183-5.221-7.715-7.889-1.03-1.086-1.909-2.313-2.907-3.5a12 12 0 0 1-.509-1.033c.577.116 1.113.223 1.718.329"/><path fill="#c6693d" d="M90.981 60.467c.568.48 1.072.956 1.587 1.42 1.831 1.65 3.241 3.575 3.927 5.976.046.159.076.327.081.491.006.19-.024.382-.06.865-.679-.484-1.256-.819-1.743-1.256-1.972-1.775-3.446-3.934-4.711-6.247a5 5 0 0 0-.496-.724c-.148-.438-.242-.852-.394-1.519.695.392 1.222.688 1.809.994"/><path fill="#b0ba51" d="M132.192 50.685c-.047-.012-.092-.064-.137-.116a.16.16 0 0 1 .119-.032c.022.027.02.107.018.148"/><path fill="#b5bb56" d="M146.803 21.251c.301.01.618.075.974.186a3.7 3.7 0 0 1-.974-.186"/><path fill="#edae7f" d="M71.446 77.626c-.553-1.684-.094-3.141.828-4.53 1.948-2.932 4.732-4.622 8.125-5.541.84-.03 1.621-.044 2.403-.035 2.259.025 3.546 1.82 2.9 3.997-.469 1.581-1.46 2.8-2.639 3.887-1.633 1.506-3.47 2.739-5.608 3.343-1.151.325-2.417.342-3.627.321-.975-.018-1.789-.556-2.383-1.441M31.527 109.26c.677 1.042.396 2.005-.164 2.871-.635.981-1.606 1.581-2.772 1.195-.539-.179-1.181-.803-1.307-1.336-.396-1.68.867-3.733 2.77-3.458.502.072.961.441 1.473.728"/><path fill="#c96c41" d="M34.478 104.766a671 671 0 0 1-2.05-2.467c.497.081.757.087.992.166 3.103 1.053 5.646 2.853 7.442 5.632.105.162.116.385.171.579-.202-.008-.417.026-.604-.032-1.962-.608-3.589-1.761-5.069-3.15-.263-.247-.56-.458-.882-.729"/><path fill="#edac7e" d="M58.745 83.856c.719.662.606 1.378.303 2.116-.373.91-.998 1.557-1.998 1.696-1.308.182-2.065-.184-2.269-1.016-.266-1.083.447-2.53 1.52-2.981.806-.339 1.641-.615 2.444.185"/><path fill="#edae7f" d="M108.875 62.14a3 3 0 0 1-.389-.087c-1.098-.354-1.545-.902-1.482-1.814.05-.718 1.028-1.799 1.751-1.934.954-.179 1.815.317 2.278 1.125.53.928-.648 2.808-2.158 2.71"/></svg>